<svg width="48" height="48" viewBox="0 0 48 48" fill="none" xmlns="http://www.w3.org/2000/svg">
<path d="M25.768 5.06401C25.076 3.75601 22.924 3.75601 22.232 5.06401L4.23204 39.064C4.07001 39.3687 3.98968 39.7103 3.99888 40.0553C4.00808 40.4003 4.1065 40.737 4.28455 41.0327C4.46259 41.3284 4.71419 41.5729 5.01483 41.7424C5.31547 41.9119 5.6549 42.0007 6.00004 42H42C42.3449 42.0007 42.6841 41.9121 42.9846 41.7426C43.285 41.5732 43.5364 41.3288 43.7143 41.0333C43.8922 40.7378 43.9904 40.4013 43.9995 40.0565C44.0086 39.7117 43.9281 39.3705 43.766 39.066L25.768 5.06401ZM26 36H22V32H26V36ZM22 28V18H26L26.002 28H22Z" fill="#F11313"/>
</svg>
