<svg width="18" height="19" viewBox="0 0 18 19" fill="none" xmlns="http://www.w3.org/2000/svg">
<path d="M6 4.8125C5.6925 4.8125 5.4375 4.5575 5.4375 4.25V2C5.4375 1.6925 5.6925 1.4375 6 1.4375C6.3075 1.4375 6.5625 1.6925 6.5625 2V4.25C6.5625 4.5575 6.3075 4.8125 6 4.8125Z" fill="#5C5C5C"/>
<path d="M12 4.8125C11.6925 4.8125 11.4375 4.5575 11.4375 4.25V2C11.4375 1.6925 11.6925 1.4375 12 1.4375C12.3075 1.4375 12.5625 1.6925 12.5625 2V4.25C12.5625 4.5575 12.3075 4.8125 12 4.8125Z" fill="#5C5C5C"/>
<path d="M15.375 7.88H2.625C2.3175 7.88 2.0625 7.625 2.0625 7.3175C2.0625 7.01 2.3175 6.755 2.625 6.755H15.375C15.6825 6.755 15.9375 7.01 15.9375 7.3175C15.9375 7.625 15.6825 7.88 15.375 7.88Z" fill="#292D32"/>
<path d="M12 17.5625H6C3.2625 17.5625 1.6875 15.9875 1.6875 13.25V6.875C1.6875 4.1375 3.2625 2.5625 6 2.5625H12C14.7375 2.5625 16.3125 4.1375 16.3125 6.875V13.25C16.3125 15.9875 14.7375 17.5625 12 17.5625ZM6 3.6875C3.855 3.6875 2.8125 4.73 2.8125 6.875V13.25C2.8125 15.395 3.855 16.4375 6 16.4375H12C14.145 16.4375 15.1875 15.395 15.1875 13.25V6.875C15.1875 4.73 14.145 3.6875 12 3.6875H6Z" fill="#292D32"/>
<path d="M6.375 11.375C6.2775 11.375 6.18 11.3525 6.09 11.315C6 11.2775 5.91751 11.225 5.84251 11.1575C5.77501 11.0825 5.72249 11 5.68499 10.91C5.64749 10.82 5.625 10.7225 5.625 10.625C5.625 10.43 5.70751 10.235 5.84251 10.0925C5.91751 10.025 6 9.9725 6.09 9.935C6.225 9.875 6.37501 9.86 6.52501 9.89C6.57001 9.8975 6.615 9.9125 6.66 9.935C6.705 9.95 6.75 9.97252 6.795 10.0025C6.8325 10.0325 6.86999 10.0625 6.90749 10.0925C6.93749 10.13 6.97499 10.1675 6.99749 10.205C7.02749 10.25 7.05001 10.295 7.06501 10.34C7.08751 10.385 7.10251 10.43 7.11001 10.475C7.11751 10.5275 7.125 10.5725 7.125 10.625C7.125 10.82 7.04249 11.015 6.90749 11.1575C6.76499 11.2925 6.57 11.375 6.375 11.375Z" fill="#292D32"/>
<path d="M9 11.375C8.805 11.375 8.61001 11.2925 8.46751 11.1575C8.43751 11.12 8.40751 11.0825 8.37751 11.045C8.34751 11 8.32499 10.955 8.30999 10.91C8.28749 10.865 8.27249 10.82 8.26499 10.775C8.25749 10.7225 8.25 10.6775 8.25 10.625C8.25 10.5275 8.27249 10.43 8.30999 10.34C8.34749 10.25 8.40001 10.1675 8.46751 10.0925C8.67751 9.88253 9.015 9.81502 9.285 9.93502C9.3825 9.97252 9.45749 10.025 9.53249 10.0925C9.66749 10.235 9.75 10.43 9.75 10.625C9.75 10.6775 9.74251 10.7225 9.73501 10.775C9.72751 10.82 9.71251 10.865 9.69001 10.91C9.67501 10.955 9.65249 11 9.62249 11.045C9.59249 11.0825 9.56249 11.12 9.53249 11.1575C9.45749 11.225 9.3825 11.2775 9.285 11.315C9.195 11.3525 9.0975 11.375 9 11.375Z" fill="#292D32"/>
<path d="M6.375 14C6.2775 14 6.18 13.9775 6.09 13.94C6 13.9025 5.91751 13.85 5.84251 13.7825C5.77501 13.7075 5.72249 13.6325 5.68499 13.535C5.64749 13.445 5.625 13.3475 5.625 13.25C5.625 13.055 5.70751 12.86 5.84251 12.7175C5.91751 12.65 6 12.5975 6.09 12.56C6.3675 12.44 6.69749 12.5075 6.90749 12.7175C6.93749 12.755 6.97499 12.7925 6.99749 12.83C7.02749 12.875 7.05001 12.92 7.06501 12.965C7.08751 13.01 7.10251 13.055 7.11001 13.1075C7.11751 13.1525 7.125 13.205 7.125 13.25C7.125 13.445 7.04249 13.64 6.90749 13.7825C6.76499 13.9175 6.57 14 6.375 14Z" fill="#292D32"/>
</svg>
