<svg width="25" height="24" viewBox="0 0 25 24" fill="none" xmlns="http://www.w3.org/2000/svg">
<path d="M22.625 9.25H2.625C2.215 9.25 1.875 8.91 1.875 8.5C1.875 8.09 2.215 7.75 2.625 7.75H22.625C23.035 7.75 23.375 8.09 23.375 8.5C23.375 8.91 23.035 9.25 22.625 9.25Z" fill="#BBC0C3"/>
<path d="M8.625 17.25H6.625C6.215 17.25 5.875 16.91 5.875 16.5C5.875 16.09 6.215 15.75 6.625 15.75H8.625C9.035 15.75 9.375 16.09 9.375 16.5C9.375 16.91 9.035 17.25 8.625 17.25Z" fill="#BBC0C3"/>
<path d="M15.125 17.25H11.125C10.715 17.25 10.375 16.91 10.375 16.5C10.375 16.09 10.715 15.75 11.125 15.75H15.125C15.535 15.75 15.875 16.09 15.875 16.5C15.875 16.91 15.535 17.25 15.125 17.25Z" fill="#BBC0C3"/>
<path d="M18.185 21.25H7.065C3.085 21.25 1.875 20.05 1.875 16.11V7.89C1.875 3.95 3.085 2.75 7.065 2.75H18.175C22.155 2.75 23.365 3.95 23.365 7.89V16.1C23.375 20.05 22.165 21.25 18.185 21.25ZM7.065 4.25C3.925 4.25 3.375 4.79 3.375 7.89V16.1C3.375 19.2 3.925 19.74 7.065 19.74H18.175C21.315 19.74 21.865 19.2 21.865 16.1V7.89C21.865 4.79 21.315 4.25 18.175 4.25H7.065Z" fill="#BBC0C3"/>
</svg>
