<svg width="80" height="81" viewBox="0 0 80 81" fill="none" xmlns="http://www.w3.org/2000/svg">
<g clip-path="url(#clip0_545_4052)">
<path d="M49.4333 63.8334C48.7446 65.7851 47.4675 67.4753 45.7779 68.6707C44.0884 69.8662 42.0696 70.5082 39.9999 70.5082C37.9302 70.5082 35.9115 69.8662 34.2219 68.6707C32.5324 67.4753 31.2553 65.7851 30.5666 63.8334H49.4333ZM39.9999 7.16669C46.1883 7.16669 52.1232 9.62502 56.4991 14.0009C60.8749 18.3767 63.3333 24.3116 63.3333 30.5V42.26C63.3338 42.7774 63.4548 43.2875 63.6866 43.75L69.4066 55.1934C69.6862 55.7524 69.8182 56.3737 69.7901 56.9981C69.762 57.6226 69.5748 58.2295 69.2461 58.7612C68.9175 59.2929 68.4584 59.7317 67.9124 60.0361C67.3664 60.3404 66.7517 60.5001 66.1266 60.5H64.7133L68.2833 64.07C68.8905 64.6987 69.2264 65.5407 69.2189 66.4147C69.2113 67.2887 68.8607 68.1247 68.2427 68.7428C67.6246 69.3608 66.7886 69.7113 65.9146 69.7189C65.0406 69.7265 64.1986 69.3906 63.5699 68.7834L11.7166 16.9334C11.3982 16.6259 11.1443 16.2581 10.9696 15.8514C10.7949 15.4447 10.7029 15.0073 10.6991 14.5647C10.6952 14.1221 10.7796 13.6832 10.9472 13.2735C11.1148 12.8639 11.3623 12.4917 11.6753 12.1787C11.9883 11.8657 12.3604 11.6182 12.7701 11.4506C13.1797 11.283 13.6187 11.1987 14.0613 11.2025C14.5039 11.2064 14.9413 11.2983 15.3479 11.473C15.7546 11.6477 16.1224 11.9017 16.4299 12.22L21.0699 16.86C23.2299 13.8575 26.0736 11.4124 29.3659 9.7268C32.6583 8.04123 36.3046 7.16367 40.0033 7.16669M16.7433 28.59L48.6533 60.5H13.8733C13.2482 60.5001 12.6335 60.3404 12.0875 60.0361C11.5415 59.7317 11.0824 59.2929 10.7537 58.7612C10.4251 58.2295 10.2378 57.6226 10.2098 56.9981C10.1817 56.3737 10.3137 55.7524 10.5933 55.1934L16.3166 43.75C16.5473 43.2872 16.6671 42.7771 16.6666 42.26V30.5C16.6666 29.8556 16.6922 29.2189 16.7433 28.59Z" fill="#54A7FF"/>
</g>
<defs>
<clipPath id="clip0_545_4052">
<rect width="80" height="80" fill="white" transform="translate(0 0.5)"/>
</clipPath>
</defs>
</svg>
