<svg width="25" height="24" viewBox="0 0 25 24" fill="none" xmlns="http://www.w3.org/2000/svg">
<path d="M12.875 18.75C12.465 18.75 12.125 18.41 12.125 18V15C12.125 14.59 12.465 14.25 12.875 14.25C13.285 14.25 13.625 14.59 13.625 15V18C13.625 18.41 13.285 18.75 12.875 18.75Z" fill="#BBC0C3"/>
<path d="M18.475 22.5599H7.27496C5.45496 22.5599 3.79496 21.1599 3.49496 19.3699L2.16496 11.3999C1.94496 10.1599 2.55496 8.56994 3.54496 7.77994L10.475 2.22994C11.815 1.14994 13.925 1.15994 15.275 2.23994L22.205 7.77994C23.185 8.56994 23.785 10.1599 23.585 11.3999L22.255 19.3599C21.955 21.1299 20.255 22.5599 18.475 22.5599ZM12.865 2.92994C12.335 2.92994 11.805 3.08994 11.415 3.39994L4.48496 8.95994C3.92496 9.40994 3.52496 10.4499 3.64496 11.1599L4.97496 19.1199C5.15496 20.1699 6.20496 21.0599 7.27496 21.0599H18.475C19.545 21.0599 20.595 20.1699 20.775 19.1099L22.105 11.1499C22.215 10.4499 21.815 9.38994 21.265 8.94994L14.335 3.40994C13.935 3.08994 13.395 2.92994 12.865 2.92994Z" fill="#BBC0C3"/>
</svg>
