<svg width="18" height="18" viewBox="0 0 18 18" fill="none" xmlns="http://www.w3.org/2000/svg">
<path d="M11.4299 16.7026H11.3324C8.00239 16.7026 6.39739 15.3901 6.11989 12.4501C6.08989 12.1426 6.31489 11.8651 6.62989 11.8351C6.92989 11.8051 7.21489 12.0376 7.24489 12.3451C7.46239 14.7001 8.57239 15.5776 11.3399 15.5776H11.4374C14.4899 15.5776 15.5699 14.4976 15.5699 11.4451V6.55511C15.5699 3.50261 14.4899 2.42261 11.4374 2.42261H11.3399C8.55739 2.42261 7.44739 3.31511 7.24489 5.71511C7.20739 6.02261 6.94489 6.25511 6.62989 6.22511C6.31489 6.20261 6.08989 5.92511 6.11239 5.61761C6.36739 2.63261 7.97989 1.29761 11.3324 1.29761H11.4299C15.1124 1.29761 16.6874 2.87261 16.6874 6.55511V11.4451C16.6874 15.1276 15.1124 16.7026 11.4299 16.7026Z" fill="#F11313"/>
<path d="M11.2498 9.5625H2.71484C2.40734 9.5625 2.15234 9.3075 2.15234 9C2.15234 8.6925 2.40734 8.4375 2.71484 8.4375H11.2498C11.5573 8.4375 11.8123 8.6925 11.8123 9C11.8123 9.3075 11.5573 9.5625 11.2498 9.5625Z" fill="#F11313"/>
<path d="M4.38758 12.0749C4.24508 12.0749 4.10258 12.0224 3.99008 11.9099L1.47758 9.39738C1.26008 9.17988 1.26008 8.81988 1.47758 8.60238L3.99008 6.08988C4.20758 5.87238 4.56758 5.87238 4.78508 6.08988C5.00258 6.30738 5.00258 6.66738 4.78508 6.88488L2.67008 8.99988L4.78508 11.1149C5.00258 11.3324 5.00258 11.6924 4.78508 11.9099C4.68008 12.0224 4.53008 12.0749 4.38758 12.0749Z" fill="#F11313"/>
</svg>
