<svg width="25" height="24" viewBox="0 0 25 24" fill="none" xmlns="http://www.w3.org/2000/svg">
<path d="M6.77991 22.75C4.64991 22.75 2.90991 21.01 2.90991 18.88C2.90991 16.75 4.64991 15.01 6.77991 15.01C8.90991 15.01 10.6499 16.75 10.6499 18.88C10.6499 21.01 8.90991 22.75 6.77991 22.75ZM6.77991 16.51C5.46991 16.51 4.40991 17.57 4.40991 18.88C4.40991 20.19 5.46991 21.25 6.77991 21.25C8.08991 21.25 9.14991 20.19 9.14991 18.88C9.14991 17.57 8.08991 16.51 6.77991 16.51Z" fill="#FEA962"/>
<path d="M9.8999 19.63C9.4899 19.63 9.1499 19.29 9.1499 18.88V6.30001C9.1499 4.72001 10.0999 3.48001 11.6199 3.07001L17.8599 1.37001C19.1299 1.02001 20.1999 1.15001 20.9499 1.73001C21.7099 2.31001 22.0899 3.28001 22.0899 4.61001V16.81C22.0899 17.22 21.7499 17.56 21.3399 17.56C20.9299 17.56 20.5899 17.22 20.5899 16.81V4.60001C20.5899 4.02001 20.4899 3.26001 20.0399 2.92001C19.5499 2.54001 18.7099 2.69001 18.2499 2.82001L12.0099 4.52001C11.1399 4.76001 10.6499 5.41001 10.6499 6.31001V18.89C10.6499 19.29 10.3099 19.63 9.8999 19.63Z" fill="#FEA962"/>
<path d="M18.2201 20.67C16.0901 20.67 14.3501 18.93 14.3501 16.8C14.3501 14.67 16.0901 12.93 18.2201 12.93C20.3501 12.93 22.0901 14.67 22.0901 16.8C22.0901 18.93 20.3501 20.67 18.2201 20.67ZM18.2201 14.43C16.9101 14.43 15.8501 15.49 15.8501 16.8C15.8501 18.11 16.9101 19.17 18.2201 19.17C19.5301 19.17 20.5901 18.11 20.5901 16.8C20.5901 15.49 19.5301 14.43 18.2201 14.43Z" fill="#FEA962"/>
<path d="M9.90005 10.27C9.57005 10.27 9.27005 10.05 9.18005 9.72003C9.07005 9.32003 9.30005 8.90003 9.70005 8.79003L21.14 5.67003C21.54 5.56003 21.95 5.80003 22.06 6.20003C22.17 6.60003 21.93 7.01003 21.53 7.12003L10.1 10.24C10.03 10.26 9.96005 10.27 9.90005 10.27Z" fill="#FEA962"/>
</svg>
