<svg width="18" height="18" viewBox="0 0 18 18" fill="none" xmlns="http://www.w3.org/2000/svg">
<path d="M9 7.89008C8.6925 7.89008 8.4375 7.63508 8.4375 7.32758V4.83008C8.4375 4.52258 8.6925 4.26758 9 4.26758C9.3075 4.26758 9.5625 4.52258 9.5625 4.83008V7.32758C9.5625 7.64258 9.3075 7.89008 9 7.89008Z" fill="#5D6166"/>
<path d="M9.01502 15.2624C7.08002 15.2624 5.15252 14.9549 3.31502 14.3399C2.63252 14.1149 2.11502 13.6274 1.89002 13.0124C1.66502 12.3974 1.74002 11.6924 2.10752 11.0774L3.06002 9.48743C3.27002 9.13493 3.45752 8.47493 3.45752 8.06243V6.48743C3.45752 3.41993 5.94752 0.929932 9.01502 0.929932C12.0825 0.929932 14.5725 3.41993 14.5725 6.48743V8.06243C14.5725 8.46743 14.76 9.13493 14.97 9.48743L15.9225 11.0774C16.275 11.6624 16.335 12.3599 16.1025 12.9974C15.87 13.6349 15.36 14.1224 14.715 14.3399C12.8775 14.9624 10.95 15.2624 9.01502 15.2624ZM9.01502 2.06243C6.57002 2.06243 4.58252 4.04993 4.58252 6.49493V8.06993C4.58252 8.67743 4.34252 9.55493 4.02752 10.0724L3.07502 11.6699C2.88002 11.9924 2.83502 12.3374 2.94752 12.6374C3.06002 12.9374 3.31502 13.1624 3.67502 13.2824C7.12502 14.4299 10.92 14.4299 14.37 13.2824C14.6925 13.1774 14.94 12.9374 15.0525 12.6224C15.1725 12.3074 15.135 11.9624 14.9625 11.6699L14.01 10.0799C13.695 9.56243 13.455 8.68493 13.455 8.07743V6.50243C13.4475 4.04993 11.46 2.06243 9.01502 2.06243Z" fill="#5D6166"/>
<path d="M9 17.175C8.1975 17.175 7.41 16.845 6.84 16.275C6.27 15.705 5.94 14.9175 5.94 14.115H7.065C7.065 14.625 7.275 15.12 7.635 15.48C7.995 15.84 8.49 16.05 9 16.05C10.065 16.05 10.935 15.18 10.935 14.115H12.06C12.06 15.8025 10.6875 17.175 9 17.175Z" fill="#5D6166"/>
</svg>
