<svg width="25" height="24" viewBox="0 0 25 24" fill="none" xmlns="http://www.w3.org/2000/svg">
<path d="M18.3748 7.91002C18.3448 7.91002 18.3248 7.91002 18.2948 7.91002H18.2448C16.3548 7.85002 14.9448 6.39001 14.9448 4.59001C14.9448 2.75001 16.4448 1.26001 18.2748 1.26001C20.1048 1.26001 21.6048 2.76001 21.6048 4.59001C21.5948 6.40001 20.1848 7.86001 18.3848 7.92001C18.3848 7.91001 18.3848 7.91002 18.3748 7.91002ZM18.2748 2.75002C17.2648 2.75002 16.4448 3.57002 16.4448 4.58002C16.4448 5.57002 17.2148 6.37002 18.2048 6.41002C18.2148 6.40002 18.2948 6.40002 18.3848 6.41002C19.3548 6.36002 20.1048 5.56002 20.1148 4.58002C20.1148 3.57002 19.2948 2.75002 18.2748 2.75002Z" fill="#BBC0C3"/>
<path d="M18.385 15.28C17.995 15.28 17.605 15.25 17.215 15.18C16.805 15.11 16.535 14.72 16.605 14.31C16.675 13.9 17.065 13.63 17.475 13.7C18.705 13.91 20.005 13.68 20.875 13.1C21.345 12.79 21.595 12.4 21.595 12.01C21.595 11.62 21.335 11.24 20.875 10.93C20.005 10.35 18.685 10.12 17.445 10.34C17.035 10.42 16.645 10.14 16.575 9.73002C16.505 9.32002 16.775 8.93003 17.185 8.86003C18.815 8.57003 20.505 8.88002 21.705 9.68002C22.585 10.27 23.095 11.11 23.095 12.01C23.095 12.9 22.595 13.75 21.705 14.35C20.795 14.95 19.615 15.28 18.385 15.28Z" fill="#BBC0C3"/>
<path d="M6.34498 7.91C6.33498 7.91 6.32498 7.91 6.32498 7.91C4.52498 7.85 3.11498 6.39 3.10498 4.59C3.10498 2.75 4.60498 1.25 6.43498 1.25C8.26498 1.25 9.76498 2.75 9.76498 4.58C9.76498 6.39 8.35498 7.85 6.55498 7.91L6.34498 7.16L6.41498 7.91C6.39498 7.91 6.36498 7.91 6.34498 7.91ZM6.44498 6.41C6.50498 6.41 6.55498 6.41 6.61498 6.42C7.50498 6.38 8.28498 5.58 8.28498 4.59C8.28498 3.58 7.46498 2.75999 6.45498 2.75999C5.44498 2.75999 4.62498 3.58 4.62498 4.59C4.62498 5.57 5.38498 6.36 6.35498 6.42C6.36498 6.41 6.40498 6.41 6.44498 6.41Z" fill="#BBC0C3"/>
<path d="M6.335 15.28C5.105 15.28 3.925 14.95 3.015 14.35C2.135 13.76 1.625 12.91 1.625 12.01C1.625 11.12 2.135 10.27 3.015 9.68002C4.215 8.88002 5.905 8.57003 7.535 8.86003C7.945 8.93003 8.215 9.32002 8.145 9.73002C8.075 10.14 7.685 10.42 7.275 10.34C6.035 10.12 4.725 10.35 3.845 10.93C3.375 11.24 3.125 11.62 3.125 12.01C3.125 12.4 3.385 12.79 3.845 13.1C4.715 13.68 6.015 13.91 7.245 13.7C7.655 13.63 8.045 13.91 8.115 14.31C8.185 14.72 7.915 15.11 7.505 15.18C7.115 15.25 6.725 15.28 6.335 15.28Z" fill="#BBC0C3"/>
<path d="M12.3748 15.38C12.3448 15.38 12.3248 15.38 12.2948 15.38H12.2448C10.3548 15.32 8.94482 13.86 8.94482 12.06C8.94482 10.22 10.4448 8.72998 12.2748 8.72998C14.1048 8.72998 15.6048 10.23 15.6048 12.06C15.5948 13.87 14.1848 15.33 12.3848 15.39C12.3848 15.38 12.3848 15.38 12.3748 15.38ZM12.2748 10.22C11.2648 10.22 10.4448 11.04 10.4448 12.05C10.4448 13.04 11.2148 13.84 12.2048 13.88C12.2148 13.87 12.2948 13.87 12.3848 13.88C13.3548 13.83 14.1048 13.03 14.1148 12.05C14.1148 11.05 13.2948 10.22 12.2748 10.22Z" fill="#BBC0C3"/>
<path d="M12.3748 22.76C11.1748 22.76 9.97478 22.45 9.04478 21.82C8.16478 21.23 7.65479 20.39 7.65479 19.49C7.65479 18.6 8.15478 17.74 9.04478 17.15C10.9148 15.91 13.8448 15.91 15.7048 17.15C16.5848 17.74 17.0948 18.58 17.0948 19.48C17.0948 20.37 16.5948 21.23 15.7048 21.82C14.7748 22.44 13.5748 22.76 12.3748 22.76ZM9.87479 18.41C9.40479 18.72 9.15479 19.11 9.15479 19.5C9.15479 19.89 9.41479 20.27 9.87479 20.58C11.2248 21.49 13.5148 21.49 14.8648 20.58C15.3348 20.27 15.5848 19.88 15.5848 19.49C15.5848 19.1 15.3248 18.72 14.8648 18.41C13.5248 17.5 11.2348 17.51 9.87479 18.41Z" fill="#BBC0C3"/>
</svg>
