<svg width="24" height="24" viewBox="0 0 24 24" fill="none" xmlns="http://www.w3.org/2000/svg">
<path d="M10.5 15.25C10.307 15.2352 10.1276 15.1455 9.99998 15L6.99998 12C6.93314 11.86 6.91133 11.7028 6.93756 11.5499C6.96379 11.3971 7.03676 11.2561 7.14643 11.1464C7.2561 11.0368 7.39707 10.9638 7.54993 10.9376C7.70279 10.9113 7.86003 10.9331 7.99998 11L10.47 13.47L19 4.99998C19.1399 4.93314 19.2972 4.91133 19.45 4.93756C19.6029 4.96379 19.7439 5.03676 19.8535 5.14643C19.9632 5.2561 20.0362 5.39707 20.0624 5.54993C20.0886 5.70279 20.0668 5.86003 20 5.99998L11 15C10.8724 15.1455 10.6929 15.2352 10.5 15.25Z" fill="#007BFF"/>
<path d="M12.0001 21.0001C10.3916 20.9975 8.81313 20.5638 7.42903 19.7443C6.04494 18.9247 4.90578 17.7492 4.13011 16.3401C3.5413 15.2897 3.17695 14.1285 3.06011 12.9301C2.87709 11.1721 3.21572 9.39923 4.03375 7.83252C4.85179 6.2658 6.11302 4.97462 7.66011 4.12005C8.71048 3.53124 9.87164 3.16689 11.0701 3.05005C12.2643 2.92271 13.4718 3.03837 14.6201 3.39005C14.7226 3.41052 14.8196 3.45218 14.905 3.51234C14.9905 3.57251 15.0624 3.64986 15.1162 3.73943C15.1699 3.82901 15.2044 3.92883 15.2174 4.03251C15.2303 4.13619 15.2215 4.24143 15.1914 4.34149C15.1613 4.44154 15.1106 4.53421 15.0427 4.61355C14.9747 4.69288 14.8909 4.75714 14.7966 4.8022C14.7023 4.84725 14.5997 4.87212 14.4952 4.87519C14.3908 4.87826 14.2869 4.85948 14.1901 4.82005C13.2188 4.52744 12.1988 4.43224 11.1901 4.54005C10.1929 4.64132 9.22673 4.94411 8.35011 5.43005C7.50524 5.89615 6.75825 6.52091 6.15011 7.27005C5.52397 8.03321 5.0564 8.91364 4.7748 9.85977C4.49319 10.8059 4.4032 11.7987 4.51011 12.7801C4.61138 13.7772 4.91417 14.7434 5.40011 15.6201C5.86621 16.4649 6.49096 17.2119 7.24011 17.8201C8.00327 18.4462 8.8837 18.9138 9.82982 19.1954C10.776 19.477 11.7688 19.567 12.7501 19.4601C13.7473 19.3588 14.7135 19.056 15.5901 18.5701C16.435 18.1039 17.182 17.4792 17.7901 16.7301C18.4162 15.9669 18.8838 15.0865 19.1654 14.1403C19.447 13.1942 19.537 12.2014 19.4301 11.2201C19.4102 11.0119 19.4738 10.8043 19.607 10.643C19.7401 10.4817 19.9319 10.3799 20.1401 10.3601C20.3483 10.3402 20.5559 10.4038 20.7172 10.5369C20.8784 10.6701 20.9802 10.8619 21.0001 11.0701C21.1822 12.829 20.8421 14.6027 20.0222 16.1695C19.2023 17.7363 17.9391 19.0269 16.3901 19.8801C15.3286 20.493 14.1495 20.8746 12.9301 21.0001H12.0001Z" fill="#007BFF"/>
</svg>
