<svg width="18" height="18" viewBox="0 0 18 18" fill="none" xmlns="http://www.w3.org/2000/svg">
<path d="M8.99993 17.0699C8.18243 17.0699 7.37244 16.8299 6.73494 16.3574L3.50993 13.9499C2.65493 13.3124 1.98743 11.9849 1.98743 10.9199V5.3474C1.98743 4.1924 2.83494 2.9624 3.92244 2.5574L7.66493 1.1549C8.40743 0.877402 9.57744 0.877402 10.3199 1.1549L14.0699 2.5574C15.1574 2.9624 16.0049 4.1924 16.0049 5.3474V10.9199C16.0049 11.9849 15.3374 13.3124 14.4824 13.9499L11.2574 16.3574C10.6274 16.8299 9.81743 17.0699 8.99993 17.0699ZM8.06243 2.2049L4.31994 3.60739C3.67494 3.84739 3.11243 4.6574 3.11243 5.3474V10.9199C3.11243 11.6324 3.61494 12.6299 4.17744 13.0499L7.40243 15.4574C8.26493 16.1024 9.72743 16.1024 10.5899 15.4574L13.8149 13.0499C14.3849 12.6224 14.8799 11.6249 14.8799 10.9199V5.3474C14.8799 4.6649 14.3174 3.85489 13.6724 3.60739L9.92992 2.2049C9.43492 2.0174 8.56493 2.0174 8.06243 2.2049Z" fill="#5D6166"/>
<path d="M8.99993 8.75262C8.98493 8.75262 8.96993 8.75262 8.94743 8.75262C7.85993 8.72262 7.06494 7.89012 7.06494 6.87762C7.06494 5.84262 7.91243 4.99512 8.94743 4.99512C9.98243 4.99512 10.8299 5.84262 10.8299 6.87762C10.8224 7.89762 10.0274 8.72261 9.01492 8.76011C9.00742 8.75261 9.00743 8.75262 8.99993 8.75262ZM8.94743 6.12012C8.52743 6.12012 8.18994 6.45762 8.18994 6.87762C8.18994 7.29012 8.51244 7.62011 8.91744 7.63511C8.91744 7.63511 8.95493 7.63511 8.99993 7.63511C9.39743 7.61261 9.70493 7.28262 9.70493 6.87762C9.71243 6.45762 9.36743 6.12012 8.94743 6.12012Z" fill="#5D6166"/>
<path d="M8.99986 13.0125C8.35486 13.0125 7.70237 12.84 7.19987 12.5025C6.69737 12.1725 6.41235 11.685 6.41235 11.1675C6.41235 10.65 6.69737 10.1625 7.19987 9.82497C8.21237 9.14997 9.79486 9.15747 10.7999 9.82497C11.3024 10.155 11.5874 10.6425 11.5874 11.16C11.5874 11.6775 11.3024 12.165 10.7999 12.5025C10.2974 12.84 9.64486 13.0125 8.99986 13.0125ZM7.82236 10.755C7.63486 10.875 7.52985 11.025 7.53735 11.16C7.53735 11.295 7.64236 11.445 7.82236 11.565C8.45236 11.985 9.54737 11.985 10.1774 11.565C10.3649 11.445 10.4699 11.295 10.4699 11.16C10.4699 11.025 10.3649 10.875 10.1849 10.755C9.55485 10.3425 8.45236 10.3425 7.82236 10.755Z" fill="#5D6166"/>
</svg>
