<svg width="25" height="24" viewBox="0 0 25 24" fill="none" xmlns="http://www.w3.org/2000/svg">
<path d="M12.125 15.75C10.055 15.75 8.375 14.07 8.375 12C8.375 9.93 10.055 8.25 12.125 8.25C14.195 8.25 15.875 9.93 15.875 12C15.875 14.07 14.195 15.75 12.125 15.75ZM12.125 9.75C10.885 9.75 9.875 10.76 9.875 12C9.875 13.24 10.885 14.25 12.125 14.25C13.365 14.25 14.375 13.24 14.375 12C14.375 10.76 13.365 9.75 12.125 9.75Z" fill="#BBC0C3"/>
<path d="M15.335 22.19C15.125 22.19 14.915 22.16 14.705 22.11C14.085 21.94 13.565 21.55 13.235 21L13.115 20.8C12.525 19.78 11.715 19.78 11.125 20.8L11.015 20.99C10.685 21.55 10.165 21.95 9.545 22.11C8.915 22.28 8.265 22.19 7.715 21.86L5.995 20.87C5.385 20.52 4.945 19.95 4.755 19.26C4.575 18.57 4.665 17.86 5.015 17.25C5.305 16.74 5.385 16.28 5.215 15.99C5.045 15.7 4.615 15.53 4.025 15.53C2.565 15.53 1.375 14.34 1.375 12.88V11.12C1.375 9.66004 2.565 8.47004 4.025 8.47004C4.615 8.47004 5.045 8.30004 5.215 8.01004C5.385 7.72004 5.315 7.26004 5.015 6.75004C4.665 6.14004 4.575 5.42004 4.755 4.74004C4.935 4.05004 5.375 3.48004 5.995 3.13004L7.725 2.14004C8.855 1.47004 10.345 1.86004 11.025 3.01004L11.145 3.21004C11.735 4.23004 12.545 4.23004 13.135 3.21004L13.245 3.02004C13.925 1.86004 15.415 1.47004 16.555 2.15004L18.275 3.14004C18.885 3.49004 19.325 4.06004 19.515 4.75004C19.695 5.44004 19.605 6.15004 19.255 6.76004C18.965 7.27004 18.885 7.73004 19.055 8.02004C19.225 8.31004 19.655 8.48004 20.245 8.48004C21.705 8.48004 22.895 9.67004 22.895 11.13V12.89C22.895 14.35 21.705 15.54 20.245 15.54C19.655 15.54 19.225 15.71 19.055 16C18.885 16.29 18.955 16.75 19.255 17.26C19.605 17.87 19.705 18.59 19.515 19.27C19.335 19.96 18.895 20.53 18.275 20.88L16.545 21.87C16.165 22.08 15.755 22.19 15.335 22.19ZM12.125 18.49C13.015 18.49 13.845 19.05 14.415 20.04L14.525 20.23C14.645 20.44 14.845 20.59 15.085 20.65C15.325 20.71 15.565 20.68 15.765 20.56L17.495 19.56C17.755 19.41 17.955 19.16 18.035 18.86C18.115 18.56 18.075 18.25 17.925 17.99C17.355 17.01 17.285 16 17.725 15.23C18.165 14.46 19.075 14.02 20.215 14.02C20.855 14.02 21.365 13.51 21.365 12.87V11.11C21.365 10.48 20.855 9.96004 20.215 9.96004C19.075 9.96004 18.165 9.52004 17.725 8.75004C17.285 7.98004 17.355 6.97004 17.925 5.99004C18.075 5.73004 18.115 5.42004 18.035 5.12004C17.955 4.82004 17.765 4.58004 17.505 4.42004L15.775 3.43004C15.345 3.17004 14.775 3.32004 14.515 3.76004L14.405 3.95004C13.835 4.94004 13.005 5.50004 12.115 5.50004C11.225 5.50004 10.395 4.94004 9.825 3.95004L9.715 3.75004C9.465 3.33004 8.905 3.18004 8.475 3.43004L6.745 4.43004C6.485 4.58004 6.285 4.83004 6.205 5.13004C6.125 5.43004 6.165 5.74004 6.315 6.00004C6.885 6.98004 6.955 7.99004 6.515 8.76004C6.075 9.53004 5.165 9.97004 4.025 9.97004C3.385 9.97004 2.875 10.48 2.875 11.12V12.88C2.875 13.51 3.385 14.03 4.025 14.03C5.165 14.03 6.075 14.47 6.515 15.24C6.955 16.01 6.885 17.02 6.315 18C6.165 18.26 6.125 18.57 6.205 18.87C6.285 19.17 6.475 19.41 6.735 19.57L8.465 20.56C8.675 20.69 8.925 20.72 9.155 20.66C9.395 20.6 9.595 20.44 9.725 20.23L9.835 20.04C10.405 19.06 11.235 18.49 12.125 18.49Z" fill="#BBC0C3"/>
</svg>
