<svg width="25" height="24" viewBox="0 0 25 24" fill="none" xmlns="http://www.w3.org/2000/svg">
<path d="M15.5 22.75H9.5C4.07 22.75 1.75 20.43 1.75 15V9C1.75 3.57 4.07 1.25 9.5 1.25H15.5C20.93 1.25 23.25 3.57 23.25 9V15C23.25 20.43 20.93 22.75 15.5 22.75ZM9.5 2.75C4.89 2.75 3.25 4.39 3.25 9V15C3.25 19.61 4.89 21.25 9.5 21.25H15.5C20.11 21.25 21.75 19.61 21.75 15V9C21.75 4.39 20.11 2.75 15.5 2.75H9.5Z" fill="#54A7FF"/>
<path d="M11.2601 16.37C10.8401 16.37 10.4501 16.27 10.1001 16.07C9.30009 15.61 8.84009 14.67 8.84009 13.48V10.52C8.84009 9.33999 9.30009 8.38999 10.1001 7.92999C10.9001 7.46999 11.9401 7.53999 12.9701 8.13999L15.5401 9.61999C16.5601 10.21 17.1501 11.08 17.1501 12C17.1501 12.92 16.5601 13.79 15.5401 14.38L12.9701 15.86C12.3901 16.2 11.8001 16.37 11.2601 16.37ZM11.2701 9.12999C11.1101 9.12999 10.9701 9.15999 10.8601 9.22999C10.5401 9.41999 10.3501 9.88999 10.3501 10.52V13.48C10.3501 14.11 10.5301 14.58 10.8601 14.77C11.1801 14.96 11.6801 14.88 12.2301 14.56L14.8001 13.08C15.3501 12.76 15.6601 12.37 15.6601 12C15.6601 11.63 15.3501 11.23 14.8001 10.92L12.2301 9.43999C11.8701 9.22999 11.5401 9.12999 11.2701 9.12999Z" fill="#54A7FF"/>
</svg>
