<svg width="24" height="25" viewBox="0 0 24 25" fill="none" xmlns="http://www.w3.org/2000/svg">
<rect x="0.5" y="1" width="23" height="23" rx="11.5" stroke="#F11313"/>
<path d="M12.582 6.486V11.634C12.582 12.18 12.555 12.717 12.501 13.245C12.447 13.767 12.378 14.322 12.294 14.91H10.782C10.698 14.322 10.629 13.767 10.575 13.245C10.521 12.717 10.494 12.18 10.494 11.634V6.486H12.582ZM10.143 18.276C10.143 18.09 10.176 17.913 10.242 17.745C10.314 17.577 10.41 17.433 10.53 17.313C10.656 17.193 10.803 17.097 10.971 17.025C11.139 16.953 11.319 16.917 11.511 16.917C11.697 16.917 11.874 16.953 12.042 17.025C12.21 17.097 12.354 17.193 12.474 17.313C12.6 17.433 12.699 17.577 12.771 17.745C12.843 17.913 12.879 18.09 12.879 18.276C12.879 18.468 12.843 18.648 12.771 18.816C12.699 18.978 12.6 19.119 12.474 19.239C12.354 19.359 12.21 19.452 12.042 19.518C11.874 19.59 11.697 19.626 11.511 19.626C11.319 19.626 11.139 19.59 10.971 19.518C10.803 19.452 10.656 19.359 10.53 19.239C10.41 19.119 10.314 18.978 10.242 18.816C10.176 18.648 10.143 18.468 10.143 18.276Z" fill="#F11313"/>
</svg>
